<?xml version="1.0" standalone="no"?>
<!DOCTYPE svg PUBLIC "-//W3C//DTD SVG 20010904//EN"
 "http://www.w3.org/TR/2001/REC-SVG-20010904/DTD/svg10.dtd">
<svg version="1.0" xmlns="http://www.w3.org/2000/svg"
 width="260.000000pt" height="260.000000pt" viewBox="0 0 260.000000 260.000000"
 preserveAspectRatio="xMidYMid meet">
<metadata>
Created by potrace 1.11, written by Peter Selinger 2001-2013
</metadata>
<g transform="translate(0.000000,260.000000) scale(0.100000,-0.100000)"
fill="#000000" stroke="none">
<path d="M1078 2381 c-108 -24 -144 -35 -237 -78 -298 -135 -523 -406 -613
-735 -19 -72 -22 -107 -23 -268 0 -170 2 -193 27 -280 108 -390 398 -680 788
-788 87 -25 110 -27 280 -27 171 0 193 2 283 27 387 108 680 402 785 788 24
86 26 112 26 280 0 168 -2 194 -26 280 -105 386 -405 687 -787 787 -133 35
-374 42 -503 14z m217 -331 l25 0 0 149 0 148 53 -4 c216 -17 439 -107 594
-239 l55 -47 -68 -68 c-54 -54 -66 -71 -56 -81 10 -10 27 2 81 56 l68 67 43
-48 c134 -150 229 -368 248 -569 l8 -84 -153 0 -153 0 0 -25 0 -25 154 0 153
0 -4 -52 c-17 -219 -111 -450 -243 -599 l-48 -54 -71 70 c-56 54 -73 67 -83
57 -10 -10 3 -27 57 -83 l70 -71 -54 -48 c-149 -132 -380 -226 -598 -243 l-53
-4 0 153 0 154 -25 0 -25 0 0 -153 0 -153 -84 8 c-201 19 -419 114 -569 248
l-48 43 67 68 c54 54 66 71 56 81 -10 10 -27 -2 -81 -56 l-68 -68 -47 55
c-132 155 -222 378 -239 595 l-4 52 148 0 149 0 0 25 0 25 -148 0 -148 0 8 84
c19 200 116 423 246 566 l41 45 65 -65 c52 -50 68 -62 78 -52 10 10 -2 26 -52
78 l-65 65 45 41 c143 130 369 228 565 246 l80 7 3 -147 3 -148 24 0z"/>
<path d="M1817 1702 c-46 -59 -46 -59 -169 -102 -68 -23 -129 -46 -137 -50
-10 -5 15 -22 77 -55 51 -26 92 -51 92 -55 0 -4 -38 -100 -84 -212 -45 -111
-85 -209 -87 -215 -2 -7 -101 97 -219 232 -118 134 -218 244 -221 245 -3 0
-82 -111 -175 -247 -102 -150 -191 -269 -224 -300 l-55 -53 110 0 111 0 -4 38
c-3 34 7 51 113 197 65 88 120 160 124 160 4 0 86 -89 181 -197 l172 -198 93
0 93 0 75 143 c242 462 260 499 278 580 30 131 30 130 -53 142 l-45 7 -46 -60z
m136 32 c21 -6 21 -8 -2 -109 -15 -68 -21 -80 -42 -86 -16 -5 -18 -7 -6 -8 9
-1 17 -5 17 -10 0 -8 -33 -71 -46 -90 -2 -1 -28 9 -60 23 l-57 26 42 30 c22
17 51 31 63 31 13 1 -1 6 -30 13 -30 6 -50 14 -46 19 12 12 -7 8 -86 -17 l-75
-24 100 -47 c55 -26 110 -51 123 -56 19 -7 21 -12 12 -29 -6 -11 -14 -20 -18
-20 -9 0 -294 149 -305 159 -4 4 55 29 132 56 77 26 138 52 135 56 -3 5 10 29
28 54 31 42 36 45 68 40 19 -4 43 -8 53 -11z m-135 -189 c1 -1 -14 -15 -34
-30 l-36 -27 -39 17 c-43 20 -43 24 4 42 26 9 93 8 105 -2z m-528 -319 c205
-233 210 -239 210 -282 l0 -44 -37 1 c-37 1 -45 8 -213 204 -96 112 -178 203
-182 202 -3 -1 -63 -80 -132 -175 -111 -152 -125 -176 -119 -202 l6 -30 -93 0
-92 0 40 33 c24 19 110 134 213 285 95 139 177 251 181 250 4 -2 102 -110 218
-242z m550 135 c-1 -3 -54 -107 -119 -231 l-118 -225 -47 -3 -46 -3 0 44 c0
34 22 98 86 253 47 115 90 217 96 227 8 16 14 15 79 -19 38 -20 69 -39 69 -43z"/>
<path d="M1830 1659 c-12 -9 -12 -10 4 -5 21 7 46 -9 46 -29 0 -8 -12 -18 -27
-23 -16 -6 -23 -11 -16 -11 6 -1 24 3 38 9 26 10 26 10 8 40 -19 32 -29 36
-53 19z"/>
</g>
</svg>
