<?xml version="1.0" encoding="utf-8"?>
<!-- Generator: Adobe Illustrator 22.0.1, SVG Export Plug-In . SVG Version: 6.00 Build 0)  -->
<svg version="1.1" id="Layer_1" xmlns="http://www.w3.org/2000/svg" xmlns:xlink="http://www.w3.org/1999/xlink" x="0px" y="0px"
	 viewBox="0 0 300 300" style="enable-background:new 0 0 300 300;" xml:space="preserve">
<style type="text/css">
	.st0{fill:#FFFFFF;}
</style>
<g id="circle">
	<circle class="st0" cx="150" cy="150" r="141.5"/>
	<path d="M150,9c37.7,0,73.1,14.7,99.7,41.3s41.3,62,41.3,99.7s-14.7,73.1-41.3,99.7S187.7,291,150,291s-73.1-14.7-99.7-41.3
		S9,187.7,9,150s14.7-73.1,41.3-99.7S112.3,9,150,9 M150,8C71.6,8,8,71.6,8,150s63.6,142,142,142s142-63.6,142-142S228.4,8,150,8
		L150,8z"/>
</g>
<g id="torso">
	<g id="head">
		<circle cx="77" cy="101" r="26.5"/>
		<path d="M77,75c14.3,0,26,11.7,26,26s-11.7,26-26,26s-26-11.7-26-26S62.7,75,77,75 M77,74c-14.9,0-27,12.1-27,27s12.1,27,27,27
			s27-12.1,27-27S91.9,74,77,74L77,74z"/>
	</g>
	<g id="arm">
		<path d="M83.5,153.6c-4.1,0-7.7-2.4-9.3-6.1c-1-2.5-1-5.2,0-7.6c1-2.5,2.9-4.4,5.4-5.4l105.8-44.3c1.2-0.5,2.5-0.8,3.8-0.8
			c4.1,0,7.7,2.4,9.3,6.1c1,2.5,1,5.2,0,7.6c-1,2.5-2.9,4.4-5.4,5.4L87.3,152.9C86.1,153.4,84.8,153.6,83.5,153.6L83.5,153.6z"/>
		<path d="M189.2,89.9c3.9,0,7.3,2.3,8.8,5.8c1,2.3,1,4.9,0,7.3s-2.8,4.2-5.1,5.2L87.1,152.4c-1.2,0.5-2.4,0.7-3.6,0.7
			c-3.9,0-7.3-2.3-8.8-5.8c-1-2.3-1-4.9,0-7.3c1-2.4,2.8-4.2,5.1-5.2l105.8-44.3C186.8,90.1,188,89.9,189.2,89.9 M189.2,88.9
			c-1.3,0-2.7,0.3-4,0.8L79.4,134c-5.3,2.2-7.9,8.4-5.6,13.7l0,0c1.7,4,5.6,6.4,9.7,6.4c1.3,0,2.7-0.3,4-0.8L193.3,109
			c5.3-2.2,7.9-8.4,5.6-13.7l0,0C197.3,91.3,193.4,88.9,189.2,88.9L189.2,88.9z"/>
	</g>
	<g id="body">
		<path d="M149.7,212.1c-5.2,0-10.1-1.9-13.9-5.4L79,154.1c-4.7-4.3-4.9-11.6-0.6-16.3c5.5-6,13.4-9.4,21.7-9.4
			c7.5,0,14.6,2.8,20,7.8l50.2,46.4c4.7,4.3,4.9,11.6,0.6,16.3l-6.1,6.6C160.9,209.7,155.4,212.1,149.7,212.1z"/>
		<path d="M100.1,128v1c7.3,0,14.3,2.7,19.7,7.7l50.2,46.4c4.5,4.1,4.7,11.1,0.6,15.5l-6.1,6.6c-3.8,4.1-9.1,6.4-14.7,6.4
			c-5.1,0-9.9-1.9-13.6-5.3l-56.8-52.5c-2.1-2-3.4-4.7-3.5-7.6c-0.1-2.9,0.9-5.8,2.9-7.9c5.5-5.9,13.2-9.3,21.3-9.3L100.1,128
			 M100.1,128c-8.1,0-16.2,3.2-22,9.6l0,0c-4.5,4.8-4.2,12.5,0.7,17l56.8,52.5c4,3.7,9.1,5.6,14.2,5.6c5.7,0,11.3-2.3,15.4-6.7
			l6.1-6.6c4.5-4.8,4.2-12.5-0.7-17l-50.2-46.4C114.7,130.6,107.4,128,100.1,128L100.1,128z"/>
	</g>
</g>
<g id="leg">
	<g id="topleg">
		<path d="M152,211c-4.7,0-9.1-1.8-12.4-5.1l-4.4-4.4c-3.9-3.9-3.9-10.2,0-14.1l53.7-53.7c1.9-1.9,4.4-2.9,7.1-2.9s5.2,1,7.1,2.9
			l0.2,0.2c9.2,9.2,9.2,24.1,0,33.2l-38.8,38.8C161.1,209.2,156.7,211,152,211z"/>
		<path d="M195.9,131.3c2.5,0,4.9,1,6.7,2.8l0.2,0.2c4.3,4.3,6.7,10.1,6.7,16.3c0,6.2-2.4,11.9-6.7,16.3L164,205.6
			c-3.2,3.2-7.5,5-12,5s-8.8-1.8-12-5l-4.4-4.4c-1.8-1.8-2.8-4.2-2.8-6.7s1-4.9,2.8-6.7l53.7-53.7
			C191,132.3,193.4,131.3,195.9,131.3 M195.9,130.3c-2.7,0-5.4,1-7.4,3.1L134.9,187c-4.1,4.1-4.1,10.8,0,14.8l4.4,4.4
			c3.5,3.5,8.1,5.3,12.7,5.3s9.2-1.8,12.7-5.3l38.8-38.8c9.3-9.3,9.3-24.6,0-33.9l-0.2-0.2C201.3,131.3,198.6,130.3,195.9,130.3
			L195.9,130.3z"/>
	</g>
	<g id="botleg">
		<path d="M241.4,212.2c-3,0-5.8-1.3-7.7-3.6l-48.8-58.1c-1.7-2-2.5-4.6-2.3-7.3c0.2-2.7,1.5-5.1,3.5-6.8l4-3.4
			c1.8-1.5,4.1-2.3,6.4-2.3c3,0,5.8,1.3,7.7,3.6l48.8,58.1c1.7,2,2.5,4.6,2.3,7.3s-1.5,5.1-3.5,6.8l-4,3.4
			C246,211.3,243.7,212.2,241.4,212.2C241.4,212.2,241.4,212.2,241.4,212.2z"/>
		<path d="M196.5,131.2c2.8,0,5.5,1.2,7.3,3.4l48.8,58.1c1.6,1.9,2.4,4.4,2.2,6.9c-0.2,2.5-1.4,4.8-3.3,6.5l-4,3.4
			c-1.7,1.4-3.9,2.2-6.1,2.2c-2.8,0-5.5-1.2-7.3-3.4l-48.8-58.1c-3.4-4-2.8-10,1.2-13.4l4-3.4C192.1,132,194.3,131.2,196.5,131.2
			 M196.5,130.2c-2.4,0-4.8,0.8-6.7,2.4l-4,3.4c-4.4,3.7-5,10.4-1.3,14.8l48.8,58.1c2.1,2.5,5.1,3.7,8.1,3.7c2.4,0,4.8-0.8,6.7-2.4
			l4-3.4c4.4-3.7,5-10.4,1.3-14.8L204.6,134C202.5,131.5,199.5,130.2,196.5,130.2L196.5,130.2z"/>
	</g>
</g>
</svg>
